<mxfile host="app.diagrams.net" agent="Mozilla/5.0 (X11; Ubuntu; Linux x86_64; rv:133.0) Gecko/20100101 Firefox/133.0" version="25.0.1">
  <diagram name="Page-1" id="kyu1YdOgKxEDkR5awUkQ">
    <mxGraphModel dx="2799" dy="2236" grid="1" gridSize="10" guides="1" tooltips="1" connect="1" arrows="1" fold="1" page="1" pageScale="1" pageWidth="850" pageHeight="1100" math="0" shadow="0">
      <root>
        <mxCell id="0" />
        <mxCell id="1" parent="0" />
        <mxCell id="qIy_7lvg44yp4supX4-h-1" value="&lt;i&gt;Bird&lt;/i&gt;" style="swimlane;fontStyle=1;align=center;verticalAlign=top;childLayout=stackLayout;horizontal=1;startSize=26;horizontalStack=0;resizeParent=1;resizeParentMax=0;resizeLast=0;collapsible=1;marginBottom=0;whiteSpace=wrap;html=1;" vertex="1" parent="1">
          <mxGeometry x="40" y="40" width="160" height="280" as="geometry" />
        </mxCell>
        <mxCell id="qIy_7lvg44yp4supX4-h-2" value="&lt;div&gt;# name: string&lt;/div&gt;&lt;div&gt;#Nest*: nest&lt;br&gt;&lt;/div&gt;" style="text;strokeColor=none;fillColor=none;align=left;verticalAlign=top;spacingLeft=4;spacingRight=4;overflow=hidden;rotatable=0;points=[[0,0.5],[1,0.5]];portConstraint=eastwest;whiteSpace=wrap;html=1;" vertex="1" parent="qIy_7lvg44yp4supX4-h-1">
          <mxGeometry y="26" width="160" height="44" as="geometry" />
        </mxCell>
        <mxCell id="qIy_7lvg44yp4supX4-h-3" value="" style="line;strokeWidth=1;fillColor=none;align=left;verticalAlign=middle;spacingTop=-1;spacingLeft=3;spacingRight=3;rotatable=0;labelPosition=right;points=[];portConstraint=eastwest;strokeColor=inherit;" vertex="1" parent="qIy_7lvg44yp4supX4-h-1">
          <mxGeometry y="70" width="160" height="8" as="geometry" />
        </mxCell>
        <mxCell id="qIy_7lvg44yp4supX4-h-4" value="&lt;div&gt;+ springBehaviour(): void&lt;/div&gt;&lt;div&gt;+ springBehaviour(): void&lt;/div&gt;&lt;div&gt;+ springBehaviour(): void&lt;/div&gt;&lt;div&gt;+ springBehaviour(): void&lt;br&gt;&lt;/div&gt;&lt;div&gt;+ migrateNorth() : string&lt;/div&gt;&lt;div&gt;+ buildNest() : string&lt;/div&gt;&lt;div&gt;+ findMate() : string&lt;/div&gt;&lt;div&gt;+ RaiseChildren(0 : string&lt;/div&gt;&lt;div&gt;+ birdSong() : string&lt;/div&gt;&lt;div&gt;+ carvePumpkin(): string&lt;/div&gt;&lt;div&gt;+ migrateSouth(): string&lt;/div&gt;&lt;div&gt;+ fattenUp(): string&lt;/div&gt;&lt;div&gt;+ stayWarm(): string&lt;br&gt;&lt;/div&gt;" style="text;strokeColor=none;fillColor=none;align=left;verticalAlign=top;spacingLeft=4;spacingRight=4;overflow=hidden;rotatable=0;points=[[0,0.5],[1,0.5]];portConstraint=eastwest;whiteSpace=wrap;html=1;" vertex="1" parent="qIy_7lvg44yp4supX4-h-1">
          <mxGeometry y="78" width="160" height="202" as="geometry" />
        </mxCell>
        <mxCell id="qIy_7lvg44yp4supX4-h-5" value="&lt;i&gt;Nest&lt;/i&gt;" style="swimlane;fontStyle=1;align=center;verticalAlign=top;childLayout=stackLayout;horizontal=1;startSize=26;horizontalStack=0;resizeParent=1;resizeParentMax=0;resizeLast=0;collapsible=1;marginBottom=0;whiteSpace=wrap;html=1;" vertex="1" parent="1">
          <mxGeometry x="710" y="30" width="160" height="86" as="geometry" />
        </mxCell>
        <mxCell id="qIy_7lvg44yp4supX4-h-6" value="# description: string" style="text;strokeColor=none;fillColor=none;align=left;verticalAlign=top;spacingLeft=4;spacingRight=4;overflow=hidden;rotatable=0;points=[[0,0.5],[1,0.5]];portConstraint=eastwest;whiteSpace=wrap;html=1;" vertex="1" parent="qIy_7lvg44yp4supX4-h-5">
          <mxGeometry y="26" width="160" height="26" as="geometry" />
        </mxCell>
        <mxCell id="qIy_7lvg44yp4supX4-h-7" value="" style="line;strokeWidth=1;fillColor=none;align=left;verticalAlign=middle;spacingTop=-1;spacingLeft=3;spacingRight=3;rotatable=0;labelPosition=right;points=[];portConstraint=eastwest;strokeColor=inherit;" vertex="1" parent="qIy_7lvg44yp4supX4-h-5">
          <mxGeometry y="52" width="160" height="8" as="geometry" />
        </mxCell>
        <mxCell id="qIy_7lvg44yp4supX4-h-8" value="+ getDescription(): string" style="text;strokeColor=none;fillColor=none;align=left;verticalAlign=top;spacingLeft=4;spacingRight=4;overflow=hidden;rotatable=0;points=[[0,0.5],[1,0.5]];portConstraint=eastwest;whiteSpace=wrap;html=1;" vertex="1" parent="qIy_7lvg44yp4supX4-h-5">
          <mxGeometry y="60" width="160" height="26" as="geometry" />
        </mxCell>
        <mxCell id="qIy_7lvg44yp4supX4-h-13" value="BigBird" style="swimlane;fontStyle=1;align=center;verticalAlign=top;childLayout=stackLayout;horizontal=1;startSize=26;horizontalStack=0;resizeParent=1;resizeParentMax=0;resizeLast=0;collapsible=1;marginBottom=0;whiteSpace=wrap;html=1;" vertex="1" parent="1">
          <mxGeometry x="40" y="560" width="160" height="220" as="geometry" />
        </mxCell>
        <mxCell id="qIy_7lvg44yp4supX4-h-14" value="&lt;div&gt;# name: string&lt;/div&gt;&lt;div&gt;# nest: Nest*&lt;br&gt;&lt;/div&gt;" style="text;strokeColor=none;fillColor=none;align=left;verticalAlign=top;spacingLeft=4;spacingRight=4;overflow=hidden;rotatable=0;points=[[0,0.5],[1,0.5]];portConstraint=eastwest;whiteSpace=wrap;html=1;" vertex="1" parent="qIy_7lvg44yp4supX4-h-13">
          <mxGeometry y="26" width="160" height="44" as="geometry" />
        </mxCell>
        <mxCell id="qIy_7lvg44yp4supX4-h-15" value="" style="line;strokeWidth=1;fillColor=none;align=left;verticalAlign=middle;spacingTop=-1;spacingLeft=3;spacingRight=3;rotatable=0;labelPosition=right;points=[];portConstraint=eastwest;strokeColor=inherit;" vertex="1" parent="qIy_7lvg44yp4supX4-h-13">
          <mxGeometry y="70" width="160" height="8" as="geometry" />
        </mxCell>
        <mxCell id="qIy_7lvg44yp4supX4-h-16" value="&lt;div&gt;+ migrateNorth() : string&lt;/div&gt;&lt;div&gt;+ buildNest() : string&lt;/div&gt;&lt;div&gt;+ findMate() : string&lt;/div&gt;&lt;div&gt;+ RaiseChildren(0 : string&lt;/div&gt;&lt;div&gt;+ birdSong() : string&lt;/div&gt;&lt;div&gt;+ carvePumpkin(): string&lt;/div&gt;&lt;div&gt;+ migrateSouth(): string&lt;/div&gt;&lt;div&gt;+ fattenUp(): string&lt;/div&gt;&lt;div&gt;+ stayWarm(): string&lt;br&gt;&lt;/div&gt;" style="text;strokeColor=none;fillColor=none;align=left;verticalAlign=top;spacingLeft=4;spacingRight=4;overflow=hidden;rotatable=0;points=[[0,0.5],[1,0.5]];portConstraint=eastwest;whiteSpace=wrap;html=1;" vertex="1" parent="qIy_7lvg44yp4supX4-h-13">
          <mxGeometry y="78" width="160" height="142" as="geometry" />
        </mxCell>
        <mxCell id="qIy_7lvg44yp4supX4-h-21" value="RubberDucky" style="swimlane;fontStyle=1;align=center;verticalAlign=top;childLayout=stackLayout;horizontal=1;startSize=26;horizontalStack=0;resizeParent=1;resizeParentMax=0;resizeLast=0;collapsible=1;marginBottom=0;whiteSpace=wrap;html=1;" vertex="1" parent="1">
          <mxGeometry x="240" y="680" width="160" height="220" as="geometry" />
        </mxCell>
        <mxCell id="qIy_7lvg44yp4supX4-h-22" value="&lt;div&gt;# name: string&lt;/div&gt;&lt;div&gt;# nest: Nest*&lt;/div&gt;" style="text;strokeColor=none;fillColor=none;align=left;verticalAlign=top;spacingLeft=4;spacingRight=4;overflow=hidden;rotatable=0;points=[[0,0.5],[1,0.5]];portConstraint=eastwest;whiteSpace=wrap;html=1;" vertex="1" parent="qIy_7lvg44yp4supX4-h-21">
          <mxGeometry y="26" width="160" height="44" as="geometry" />
        </mxCell>
        <mxCell id="qIy_7lvg44yp4supX4-h-23" value="" style="line;strokeWidth=1;fillColor=none;align=left;verticalAlign=middle;spacingTop=-1;spacingLeft=3;spacingRight=3;rotatable=0;labelPosition=right;points=[];portConstraint=eastwest;strokeColor=inherit;" vertex="1" parent="qIy_7lvg44yp4supX4-h-21">
          <mxGeometry y="70" width="160" height="8" as="geometry" />
        </mxCell>
        <mxCell id="qIy_7lvg44yp4supX4-h-24" value="&lt;div&gt;+ migrateNorth() : string&lt;/div&gt;&lt;div&gt;+ buildNest() : string&lt;/div&gt;&lt;div&gt;+ findMate() : string&lt;/div&gt;&lt;div&gt;+ RaiseChildren(0 : string&lt;/div&gt;&lt;div&gt;+ birdSong() : string&lt;/div&gt;&lt;div&gt;+ carvePumpkin(): string&lt;/div&gt;&lt;div&gt;+ migrateSouth(): string&lt;/div&gt;&lt;div&gt;+ fattenUp(): string&lt;/div&gt;&lt;div&gt;+ stayWarm(): string&lt;br&gt;&lt;/div&gt;" style="text;strokeColor=none;fillColor=none;align=left;verticalAlign=top;spacingLeft=4;spacingRight=4;overflow=hidden;rotatable=0;points=[[0,0.5],[1,0.5]];portConstraint=eastwest;whiteSpace=wrap;html=1;" vertex="1" parent="qIy_7lvg44yp4supX4-h-21">
          <mxGeometry y="78" width="160" height="142" as="geometry" />
        </mxCell>
        <mxCell id="qIy_7lvg44yp4supX4-h-25" value="SamEagle" style="swimlane;fontStyle=1;align=center;verticalAlign=top;childLayout=stackLayout;horizontal=1;startSize=26;horizontalStack=0;resizeParent=1;resizeParentMax=0;resizeLast=0;collapsible=1;marginBottom=0;whiteSpace=wrap;html=1;" vertex="1" parent="1">
          <mxGeometry x="440" y="560" width="160" height="220" as="geometry" />
        </mxCell>
        <mxCell id="qIy_7lvg44yp4supX4-h-26" value="&lt;div&gt;# name: string&lt;/div&gt;&lt;div&gt;# nest: Nest*&lt;/div&gt;" style="text;strokeColor=none;fillColor=none;align=left;verticalAlign=top;spacingLeft=4;spacingRight=4;overflow=hidden;rotatable=0;points=[[0,0.5],[1,0.5]];portConstraint=eastwest;whiteSpace=wrap;html=1;" vertex="1" parent="qIy_7lvg44yp4supX4-h-25">
          <mxGeometry y="26" width="160" height="44" as="geometry" />
        </mxCell>
        <mxCell id="qIy_7lvg44yp4supX4-h-27" value="" style="line;strokeWidth=1;fillColor=none;align=left;verticalAlign=middle;spacingTop=-1;spacingLeft=3;spacingRight=3;rotatable=0;labelPosition=right;points=[];portConstraint=eastwest;strokeColor=inherit;" vertex="1" parent="qIy_7lvg44yp4supX4-h-25">
          <mxGeometry y="70" width="160" height="8" as="geometry" />
        </mxCell>
        <mxCell id="qIy_7lvg44yp4supX4-h-28" value="&lt;div&gt;+ migrateNorth() : string&lt;/div&gt;&lt;div&gt;+ buildNest() : string&lt;/div&gt;&lt;div&gt;+ findMate() : string&lt;/div&gt;&lt;div&gt;+ RaiseChildren(0 : string&lt;/div&gt;&lt;div&gt;+ birdSong() : string&lt;/div&gt;&lt;div&gt;+ carvePumpkin(): string&lt;/div&gt;&lt;div&gt;+ migrateSouth(): string&lt;/div&gt;&lt;div&gt;+ fattenUp(): string&lt;/div&gt;&lt;div&gt;+ stayWarm(): string&lt;br&gt;&lt;/div&gt;" style="text;strokeColor=none;fillColor=none;align=left;verticalAlign=top;spacingLeft=4;spacingRight=4;overflow=hidden;rotatable=0;points=[[0,0.5],[1,0.5]];portConstraint=eastwest;whiteSpace=wrap;html=1;" vertex="1" parent="qIy_7lvg44yp4supX4-h-25">
          <mxGeometry y="78" width="160" height="142" as="geometry" />
        </mxCell>
        <mxCell id="qIy_7lvg44yp4supX4-h-29" value="Kermit" style="swimlane;fontStyle=1;align=center;verticalAlign=top;childLayout=stackLayout;horizontal=1;startSize=26;horizontalStack=0;resizeParent=1;resizeParentMax=0;resizeLast=0;collapsible=1;marginBottom=0;whiteSpace=wrap;html=1;" vertex="1" parent="1">
          <mxGeometry x="640" y="560" width="160" height="220" as="geometry" />
        </mxCell>
        <mxCell id="qIy_7lvg44yp4supX4-h-30" value="&lt;div&gt;# name: string&lt;/div&gt;&lt;div&gt;# nest: Nest*&lt;/div&gt;" style="text;strokeColor=none;fillColor=none;align=left;verticalAlign=top;spacingLeft=4;spacingRight=4;overflow=hidden;rotatable=0;points=[[0,0.5],[1,0.5]];portConstraint=eastwest;whiteSpace=wrap;html=1;" vertex="1" parent="qIy_7lvg44yp4supX4-h-29">
          <mxGeometry y="26" width="160" height="44" as="geometry" />
        </mxCell>
        <mxCell id="qIy_7lvg44yp4supX4-h-31" value="" style="line;strokeWidth=1;fillColor=none;align=left;verticalAlign=middle;spacingTop=-1;spacingLeft=3;spacingRight=3;rotatable=0;labelPosition=right;points=[];portConstraint=eastwest;strokeColor=inherit;" vertex="1" parent="qIy_7lvg44yp4supX4-h-29">
          <mxGeometry y="70" width="160" height="8" as="geometry" />
        </mxCell>
        <mxCell id="qIy_7lvg44yp4supX4-h-32" value="&lt;div&gt;+ migrateNorth() : string&lt;/div&gt;&lt;div&gt;+ buildNest() : string&lt;/div&gt;&lt;div&gt;+ findMate() : string&lt;/div&gt;&lt;div&gt;+ RaiseChildren(0 : string&lt;/div&gt;&lt;div&gt;+ birdSong() : string&lt;/div&gt;&lt;div&gt;+ carvePumpkin(): string&lt;/div&gt;&lt;div&gt;+ migrateSouth(): string&lt;/div&gt;&lt;div&gt;+ fattenUp(): string&lt;/div&gt;&lt;div&gt;+ stayWarm(): string&lt;br&gt;&lt;/div&gt;" style="text;strokeColor=none;fillColor=none;align=left;verticalAlign=top;spacingLeft=4;spacingRight=4;overflow=hidden;rotatable=0;points=[[0,0.5],[1,0.5]];portConstraint=eastwest;whiteSpace=wrap;html=1;" vertex="1" parent="qIy_7lvg44yp4supX4-h-29">
          <mxGeometry y="78" width="160" height="142" as="geometry" />
        </mxCell>
        <mxCell id="qIy_7lvg44yp4supX4-h-41" value="" style="endArrow=block;endSize=16;endFill=0;html=1;rounded=0;entryX=0.5;entryY=1;entryDx=0;entryDy=0;exitX=0.5;exitY=0;exitDx=0;exitDy=0;" edge="1" parent="1" source="qIy_7lvg44yp4supX4-h-43" target="qIy_7lvg44yp4supX4-h-1">
          <mxGeometry width="160" relative="1" as="geometry">
            <mxPoint x="120" y="430" as="sourcePoint" />
            <mxPoint x="240" y="340" as="targetPoint" />
          </mxGeometry>
        </mxCell>
        <mxCell id="qIy_7lvg44yp4supX4-h-42" value="" style="endArrow=block;endSize=16;endFill=0;html=1;rounded=0;exitX=0.5;exitY=0;exitDx=0;exitDy=0;entryX=0.5;entryY=1;entryDx=0;entryDy=0;" edge="1" parent="1">
          <mxGeometry width="160" relative="1" as="geometry">
            <mxPoint x="519.5" y="560" as="sourcePoint" />
            <mxPoint x="519.5" y="480" as="targetPoint" />
          </mxGeometry>
        </mxCell>
        <mxCell id="qIy_7lvg44yp4supX4-h-43" value="&lt;i&gt;SesameBird&lt;/i&gt;" style="html=1;whiteSpace=wrap;fontStyle=1" vertex="1" parent="1">
          <mxGeometry x="40" y="440" width="160" height="40" as="geometry" />
        </mxCell>
        <mxCell id="qIy_7lvg44yp4supX4-h-44" value="&lt;i&gt;&lt;b&gt;MuppetBird&lt;/b&gt;&lt;/i&gt;" style="html=1;whiteSpace=wrap;" vertex="1" parent="1">
          <mxGeometry x="370" y="440" width="160" height="40" as="geometry" />
        </mxCell>
        <mxCell id="qIy_7lvg44yp4supX4-h-47" value="" style="endArrow=block;endSize=16;endFill=0;html=1;rounded=0;exitX=0.5;exitY=0;exitDx=0;exitDy=0;entryX=1;entryY=0.5;entryDx=0;entryDy=0;" edge="1" parent="1" source="qIy_7lvg44yp4supX4-h-21" target="qIy_7lvg44yp4supX4-h-43">
          <mxGeometry width="160" relative="1" as="geometry">
            <mxPoint x="319.5" y="560" as="sourcePoint" />
            <mxPoint x="319.5" y="480" as="targetPoint" />
            <Array as="points">
              <mxPoint x="320" y="460" />
            </Array>
          </mxGeometry>
        </mxCell>
        <mxCell id="qIy_7lvg44yp4supX4-h-48" value="" style="endArrow=block;endSize=16;endFill=0;html=1;rounded=0;exitX=0.5;exitY=0;exitDx=0;exitDy=0;entryX=1;entryY=0.5;entryDx=0;entryDy=0;" edge="1" parent="1" target="qIy_7lvg44yp4supX4-h-44">
          <mxGeometry width="160" relative="1" as="geometry">
            <mxPoint x="719.5" y="560" as="sourcePoint" />
            <mxPoint x="600" y="460" as="targetPoint" />
            <Array as="points">
              <mxPoint x="720" y="460" />
            </Array>
          </mxGeometry>
        </mxCell>
        <mxCell id="qIy_7lvg44yp4supX4-h-49" value="" style="endArrow=block;endSize=16;endFill=0;html=1;rounded=0;exitX=0.5;exitY=0;exitDx=0;exitDy=0;entryX=0.5;entryY=1;entryDx=0;entryDy=0;" edge="1" parent="1">
          <mxGeometry width="160" relative="1" as="geometry">
            <mxPoint x="119.5" y="560" as="sourcePoint" />
            <mxPoint x="119.5" y="480" as="targetPoint" />
          </mxGeometry>
        </mxCell>
        <mxCell id="qIy_7lvg44yp4supX4-h-50" value="" style="endArrow=block;endSize=16;endFill=0;html=1;rounded=0;exitX=0.5;exitY=0;exitDx=0;exitDy=0;entryX=0.988;entryY=0.792;entryDx=0;entryDy=0;entryPerimeter=0;" edge="1" parent="1" target="qIy_7lvg44yp4supX4-h-4">
          <mxGeometry width="160" relative="1" as="geometry">
            <mxPoint x="519.5" y="440" as="sourcePoint" />
            <mxPoint x="400" y="340" as="targetPoint" />
            <Array as="points">
              <mxPoint x="520" y="280" />
            </Array>
          </mxGeometry>
        </mxCell>
        <mxCell id="qIy_7lvg44yp4supX4-h-51" value="BuiltNest" style="swimlane;fontStyle=1;align=center;verticalAlign=top;childLayout=stackLayout;horizontal=1;startSize=26;horizontalStack=0;resizeParent=1;resizeParentMax=0;resizeLast=0;collapsible=1;marginBottom=0;whiteSpace=wrap;html=1;" vertex="1" parent="1">
          <mxGeometry x="270" y="168" width="160" height="86" as="geometry" />
        </mxCell>
        <mxCell id="qIy_7lvg44yp4supX4-h-52" value="# description: string" style="text;strokeColor=none;fillColor=none;align=left;verticalAlign=top;spacingLeft=4;spacingRight=4;overflow=hidden;rotatable=0;points=[[0,0.5],[1,0.5]];portConstraint=eastwest;whiteSpace=wrap;html=1;" vertex="1" parent="qIy_7lvg44yp4supX4-h-51">
          <mxGeometry y="26" width="160" height="26" as="geometry" />
        </mxCell>
        <mxCell id="qIy_7lvg44yp4supX4-h-53" value="" style="line;strokeWidth=1;fillColor=none;align=left;verticalAlign=middle;spacingTop=-1;spacingLeft=3;spacingRight=3;rotatable=0;labelPosition=right;points=[];portConstraint=eastwest;strokeColor=inherit;" vertex="1" parent="qIy_7lvg44yp4supX4-h-51">
          <mxGeometry y="52" width="160" height="8" as="geometry" />
        </mxCell>
        <mxCell id="qIy_7lvg44yp4supX4-h-54" value="+ getDescription(): string" style="text;strokeColor=none;fillColor=none;align=left;verticalAlign=top;spacingLeft=4;spacingRight=4;overflow=hidden;rotatable=0;points=[[0,0.5],[1,0.5]];portConstraint=eastwest;whiteSpace=wrap;html=1;" vertex="1" parent="qIy_7lvg44yp4supX4-h-51">
          <mxGeometry y="60" width="160" height="26" as="geometry" />
        </mxCell>
        <mxCell id="qIy_7lvg44yp4supX4-h-55" value="" style="endArrow=block;endSize=16;endFill=0;html=1;rounded=0;exitX=0.997;exitY=0.165;exitDx=0;exitDy=0;entryX=0.613;entryY=1.077;entryDx=0;entryDy=0;entryPerimeter=0;exitPerimeter=0;edgeStyle=orthogonalEdgeStyle;" edge="1" parent="1" source="qIy_7lvg44yp4supX4-h-52">
          <mxGeometry width="160" relative="1" as="geometry">
            <mxPoint x="550" y="197" as="sourcePoint" />
            <mxPoint x="733.0799999999999" y="116.00199999999995" as="targetPoint" />
          </mxGeometry>
        </mxCell>
        <mxCell id="qIy_7lvg44yp4supX4-h-56" value="Material" style="swimlane;fontStyle=1;align=center;verticalAlign=top;childLayout=stackLayout;horizontal=1;startSize=26;horizontalStack=0;resizeParent=1;resizeParentMax=0;resizeLast=0;collapsible=1;marginBottom=0;whiteSpace=wrap;html=1;" vertex="1" parent="1">
          <mxGeometry x="740" y="158" width="200" height="100" as="geometry" />
        </mxCell>
        <mxCell id="qIy_7lvg44yp4supX4-h-57" value="# description: string" style="text;strokeColor=none;fillColor=none;align=left;verticalAlign=top;spacingLeft=4;spacingRight=4;overflow=hidden;rotatable=0;points=[[0,0.5],[1,0.5]];portConstraint=eastwest;whiteSpace=wrap;html=1;" vertex="1" parent="qIy_7lvg44yp4supX4-h-56">
          <mxGeometry y="26" width="200" height="26" as="geometry" />
        </mxCell>
        <mxCell id="qIy_7lvg44yp4supX4-h-58" value="" style="line;strokeWidth=1;fillColor=none;align=left;verticalAlign=middle;spacingTop=-1;spacingLeft=3;spacingRight=3;rotatable=0;labelPosition=right;points=[];portConstraint=eastwest;strokeColor=inherit;" vertex="1" parent="qIy_7lvg44yp4supX4-h-56">
          <mxGeometry y="52" width="200" height="8" as="geometry" />
        </mxCell>
        <mxCell id="qIy_7lvg44yp4supX4-h-59" value="+ Material(Nest*): constructor&lt;br&gt;&lt;div&gt;+ getDescription(): string&lt;/div&gt;" style="text;strokeColor=none;fillColor=none;align=left;verticalAlign=top;spacingLeft=4;spacingRight=4;overflow=hidden;rotatable=0;points=[[0,0.5],[1,0.5]];portConstraint=eastwest;whiteSpace=wrap;html=1;" vertex="1" parent="qIy_7lvg44yp4supX4-h-56">
          <mxGeometry y="60" width="200" height="40" as="geometry" />
        </mxCell>
        <mxCell id="qIy_7lvg44yp4supX4-h-60" value="" style="endArrow=block;endSize=16;endFill=0;html=1;rounded=0;entryX=0.613;entryY=1.077;entryDx=0;entryDy=0;entryPerimeter=0;exitX=0.395;exitY=0;exitDx=0;exitDy=0;exitPerimeter=0;" edge="1" parent="1" source="qIy_7lvg44yp4supX4-h-56">
          <mxGeometry width="160" relative="1" as="geometry">
            <mxPoint x="818" y="180" as="sourcePoint" />
            <mxPoint x="818.0799999999999" y="116.00199999999995" as="targetPoint" />
            <Array as="points" />
          </mxGeometry>
        </mxCell>
        <mxCell id="qIy_7lvg44yp4supX4-h-79" value="LilyPad" style="swimlane;fontStyle=1;align=center;verticalAlign=top;childLayout=stackLayout;horizontal=1;startSize=26;horizontalStack=0;resizeParent=1;resizeParentMax=0;resizeLast=0;collapsible=1;marginBottom=0;whiteSpace=wrap;html=1;" vertex="1" parent="1">
          <mxGeometry x="690" y="320" width="180" height="100" as="geometry" />
        </mxCell>
        <mxCell id="qIy_7lvg44yp4supX4-h-80" value="# description: string" style="text;strokeColor=none;fillColor=none;align=left;verticalAlign=top;spacingLeft=4;spacingRight=4;overflow=hidden;rotatable=0;points=[[0,0.5],[1,0.5]];portConstraint=eastwest;whiteSpace=wrap;html=1;" vertex="1" parent="qIy_7lvg44yp4supX4-h-79">
          <mxGeometry y="26" width="180" height="26" as="geometry" />
        </mxCell>
        <mxCell id="qIy_7lvg44yp4supX4-h-81" value="" style="line;strokeWidth=1;fillColor=none;align=left;verticalAlign=middle;spacingTop=-1;spacingLeft=3;spacingRight=3;rotatable=0;labelPosition=right;points=[];portConstraint=eastwest;strokeColor=inherit;" vertex="1" parent="qIy_7lvg44yp4supX4-h-79">
          <mxGeometry y="52" width="180" height="8" as="geometry" />
        </mxCell>
        <mxCell id="qIy_7lvg44yp4supX4-h-82" value="+ LilyPad(Nest*): constructor&lt;br&gt;&lt;div&gt;+ getDescription(): string&lt;/div&gt;" style="text;strokeColor=none;fillColor=none;align=left;verticalAlign=top;spacingLeft=4;spacingRight=4;overflow=hidden;rotatable=0;points=[[0,0.5],[1,0.5]];portConstraint=eastwest;whiteSpace=wrap;html=1;" vertex="1" parent="qIy_7lvg44yp4supX4-h-79">
          <mxGeometry y="60" width="180" height="40" as="geometry" />
        </mxCell>
        <mxCell id="qIy_7lvg44yp4supX4-h-83" value="Newspaper" style="swimlane;fontStyle=1;align=center;verticalAlign=top;childLayout=stackLayout;horizontal=1;startSize=26;horizontalStack=0;resizeParent=1;resizeParentMax=0;resizeLast=0;collapsible=1;marginBottom=0;whiteSpace=wrap;html=1;" vertex="1" parent="1">
          <mxGeometry x="880" y="320" width="190" height="100" as="geometry" />
        </mxCell>
        <mxCell id="qIy_7lvg44yp4supX4-h-84" value="# description: string" style="text;strokeColor=none;fillColor=none;align=left;verticalAlign=top;spacingLeft=4;spacingRight=4;overflow=hidden;rotatable=0;points=[[0,0.5],[1,0.5]];portConstraint=eastwest;whiteSpace=wrap;html=1;" vertex="1" parent="qIy_7lvg44yp4supX4-h-83">
          <mxGeometry y="26" width="190" height="26" as="geometry" />
        </mxCell>
        <mxCell id="qIy_7lvg44yp4supX4-h-85" value="" style="line;strokeWidth=1;fillColor=none;align=left;verticalAlign=middle;spacingTop=-1;spacingLeft=3;spacingRight=3;rotatable=0;labelPosition=right;points=[];portConstraint=eastwest;strokeColor=inherit;" vertex="1" parent="qIy_7lvg44yp4supX4-h-83">
          <mxGeometry y="52" width="190" height="8" as="geometry" />
        </mxCell>
        <mxCell id="qIy_7lvg44yp4supX4-h-86" value="+ Newspaper(Nest*): constructor&lt;br&gt;&lt;div&gt;+ getDescription(): string&lt;/div&gt;" style="text;strokeColor=none;fillColor=none;align=left;verticalAlign=top;spacingLeft=4;spacingRight=4;overflow=hidden;rotatable=0;points=[[0,0.5],[1,0.5]];portConstraint=eastwest;whiteSpace=wrap;html=1;" vertex="1" parent="qIy_7lvg44yp4supX4-h-83">
          <mxGeometry y="60" width="190" height="40" as="geometry" />
        </mxCell>
        <mxCell id="qIy_7lvg44yp4supX4-h-88" value="Feather" style="swimlane;fontStyle=1;align=center;verticalAlign=top;childLayout=stackLayout;horizontal=1;startSize=26;horizontalStack=0;resizeParent=1;resizeParentMax=0;resizeLast=0;collapsible=1;marginBottom=0;whiteSpace=wrap;html=1;" vertex="1" parent="1">
          <mxGeometry x="980" y="158" width="190" height="100" as="geometry" />
        </mxCell>
        <mxCell id="qIy_7lvg44yp4supX4-h-89" value="# description: string" style="text;strokeColor=none;fillColor=none;align=left;verticalAlign=top;spacingLeft=4;spacingRight=4;overflow=hidden;rotatable=0;points=[[0,0.5],[1,0.5]];portConstraint=eastwest;whiteSpace=wrap;html=1;" vertex="1" parent="qIy_7lvg44yp4supX4-h-88">
          <mxGeometry y="26" width="190" height="26" as="geometry" />
        </mxCell>
        <mxCell id="qIy_7lvg44yp4supX4-h-90" value="" style="line;strokeWidth=1;fillColor=none;align=left;verticalAlign=middle;spacingTop=-1;spacingLeft=3;spacingRight=3;rotatable=0;labelPosition=right;points=[];portConstraint=eastwest;strokeColor=inherit;" vertex="1" parent="qIy_7lvg44yp4supX4-h-88">
          <mxGeometry y="52" width="190" height="8" as="geometry" />
        </mxCell>
        <mxCell id="qIy_7lvg44yp4supX4-h-91" value="+ Feather(Nest*): constructor&lt;br&gt;&lt;div&gt;+ getDescription(): string&lt;/div&gt;" style="text;strokeColor=none;fillColor=none;align=left;verticalAlign=top;spacingLeft=4;spacingRight=4;overflow=hidden;rotatable=0;points=[[0,0.5],[1,0.5]];portConstraint=eastwest;whiteSpace=wrap;html=1;" vertex="1" parent="qIy_7lvg44yp4supX4-h-88">
          <mxGeometry y="60" width="190" height="40" as="geometry" />
        </mxCell>
        <mxCell id="qIy_7lvg44yp4supX4-h-92" value="SoapDish" style="swimlane;fontStyle=1;align=center;verticalAlign=top;childLayout=stackLayout;horizontal=1;startSize=26;horizontalStack=0;resizeParent=1;resizeParentMax=0;resizeLast=0;collapsible=1;marginBottom=0;whiteSpace=wrap;html=1;" vertex="1" parent="1">
          <mxGeometry x="980" y="30" width="190" height="100" as="geometry" />
        </mxCell>
        <mxCell id="qIy_7lvg44yp4supX4-h-93" value="# description: string" style="text;strokeColor=none;fillColor=none;align=left;verticalAlign=top;spacingLeft=4;spacingRight=4;overflow=hidden;rotatable=0;points=[[0,0.5],[1,0.5]];portConstraint=eastwest;whiteSpace=wrap;html=1;" vertex="1" parent="qIy_7lvg44yp4supX4-h-92">
          <mxGeometry y="26" width="190" height="26" as="geometry" />
        </mxCell>
        <mxCell id="qIy_7lvg44yp4supX4-h-94" value="" style="line;strokeWidth=1;fillColor=none;align=left;verticalAlign=middle;spacingTop=-1;spacingLeft=3;spacingRight=3;rotatable=0;labelPosition=right;points=[];portConstraint=eastwest;strokeColor=inherit;" vertex="1" parent="qIy_7lvg44yp4supX4-h-92">
          <mxGeometry y="52" width="190" height="8" as="geometry" />
        </mxCell>
        <mxCell id="qIy_7lvg44yp4supX4-h-95" value="+ SoapDish(Nest*): constructor&lt;br&gt;&lt;div&gt;+ getDescription(): string&lt;/div&gt;" style="text;strokeColor=none;fillColor=none;align=left;verticalAlign=top;spacingLeft=4;spacingRight=4;overflow=hidden;rotatable=0;points=[[0,0.5],[1,0.5]];portConstraint=eastwest;whiteSpace=wrap;html=1;" vertex="1" parent="qIy_7lvg44yp4supX4-h-92">
          <mxGeometry y="60" width="190" height="40" as="geometry" />
        </mxCell>
        <mxCell id="qIy_7lvg44yp4supX4-h-96" value="AmericanWhey" style="swimlane;fontStyle=1;align=center;verticalAlign=top;childLayout=stackLayout;horizontal=1;startSize=26;horizontalStack=0;resizeParent=1;resizeParentMax=0;resizeLast=0;collapsible=1;marginBottom=0;whiteSpace=wrap;html=1;" vertex="1" parent="1">
          <mxGeometry x="1100" y="320" width="210" height="100" as="geometry" />
        </mxCell>
        <mxCell id="qIy_7lvg44yp4supX4-h-97" value="# description: string" style="text;strokeColor=none;fillColor=none;align=left;verticalAlign=top;spacingLeft=4;spacingRight=4;overflow=hidden;rotatable=0;points=[[0,0.5],[1,0.5]];portConstraint=eastwest;whiteSpace=wrap;html=1;" vertex="1" parent="qIy_7lvg44yp4supX4-h-96">
          <mxGeometry y="26" width="210" height="26" as="geometry" />
        </mxCell>
        <mxCell id="qIy_7lvg44yp4supX4-h-98" value="" style="line;strokeWidth=1;fillColor=none;align=left;verticalAlign=middle;spacingTop=-1;spacingLeft=3;spacingRight=3;rotatable=0;labelPosition=right;points=[];portConstraint=eastwest;strokeColor=inherit;" vertex="1" parent="qIy_7lvg44yp4supX4-h-96">
          <mxGeometry y="52" width="210" height="8" as="geometry" />
        </mxCell>
        <mxCell id="qIy_7lvg44yp4supX4-h-99" value="+ AmericanWhey(Nest*): constructor&lt;br&gt;&lt;div&gt;+ getDescription(): string&lt;/div&gt;" style="text;strokeColor=none;fillColor=none;align=left;verticalAlign=top;spacingLeft=4;spacingRight=4;overflow=hidden;rotatable=0;points=[[0,0.5],[1,0.5]];portConstraint=eastwest;whiteSpace=wrap;html=1;" vertex="1" parent="qIy_7lvg44yp4supX4-h-96">
          <mxGeometry y="60" width="210" height="40" as="geometry" />
        </mxCell>
        <mxCell id="qIy_7lvg44yp4supX4-h-101" value="" style="endArrow=block;endSize=16;endFill=0;html=1;rounded=0;entryX=0.91;entryY=0.03;entryDx=0;entryDy=0;exitX=0;exitY=0.5;exitDx=0;exitDy=0;entryPerimeter=0;" edge="1" parent="1" source="qIy_7lvg44yp4supX4-h-93" target="qIy_7lvg44yp4supX4-h-56">
          <mxGeometry width="160" relative="1" as="geometry">
            <mxPoint x="950" y="10" as="sourcePoint" />
            <mxPoint x="940" y="60" as="targetPoint" />
            <Array as="points">
              <mxPoint x="960" y="70" />
              <mxPoint x="922" y="70" />
            </Array>
          </mxGeometry>
        </mxCell>
        <mxCell id="qIy_7lvg44yp4supX4-h-102" value="" style="endArrow=block;endSize=16;endFill=0;html=1;rounded=0;entryX=1;entryY=0.5;entryDx=0;entryDy=0;exitX=0;exitY=0.5;exitDx=0;exitDy=0;" edge="1" parent="1" source="qIy_7lvg44yp4supX4-h-89" target="qIy_7lvg44yp4supX4-h-57">
          <mxGeometry width="160" relative="1" as="geometry">
            <mxPoint x="829" y="168" as="sourcePoint" />
            <mxPoint x="828.0799999999999" y="126.00199999999995" as="targetPoint" />
            <Array as="points" />
          </mxGeometry>
        </mxCell>
        <mxCell id="qIy_7lvg44yp4supX4-h-103" value="" style="endArrow=block;endSize=16;endFill=0;html=1;rounded=0;" edge="1" parent="1">
          <mxGeometry width="160" relative="1" as="geometry">
            <mxPoint x="760.4545454545455" y="320" as="sourcePoint" />
            <mxPoint x="761" y="260" as="targetPoint" />
            <Array as="points" />
          </mxGeometry>
        </mxCell>
        <mxCell id="qIy_7lvg44yp4supX4-h-104" value="" style="endArrow=block;endSize=16;endFill=0;html=1;rounded=0;" edge="1" parent="1">
          <mxGeometry width="160" relative="1" as="geometry">
            <mxPoint x="900" y="318" as="sourcePoint" />
            <mxPoint x="901" y="258" as="targetPoint" />
            <Array as="points" />
          </mxGeometry>
        </mxCell>
        <mxCell id="qIy_7lvg44yp4supX4-h-105" value="" style="endArrow=block;endSize=16;endFill=0;html=1;rounded=0;exitX=0.538;exitY=0.02;exitDx=0;exitDy=0;exitPerimeter=0;" edge="1" parent="1" source="qIy_7lvg44yp4supX4-h-96">
          <mxGeometry width="160" relative="1" as="geometry">
            <mxPoint x="931" y="310" as="sourcePoint" />
            <mxPoint x="931" y="258" as="targetPoint" />
            <Array as="points">
              <mxPoint x="1210" y="300" />
              <mxPoint x="931" y="300" />
            </Array>
          </mxGeometry>
        </mxCell>
        <mxCell id="qIy_7lvg44yp4supX4-h-106" value="&lt;b&gt;Main&lt;/b&gt;" style="html=1;whiteSpace=wrap;" vertex="1" parent="1">
          <mxGeometry x="390" y="68" width="80" height="40" as="geometry" />
        </mxCell>
        <mxCell id="qIy_7lvg44yp4supX4-h-109" value="" style="endArrow=open;html=1;endSize=12;startArrow=diamondThin;startSize=14;startFill=0;edgeStyle=orthogonalEdgeStyle;align=left;verticalAlign=bottom;rounded=0;exitX=0.75;exitY=0;exitDx=0;exitDy=0;entryX=1;entryY=0.5;entryDx=0;entryDy=0;" edge="1" parent="1" source="qIy_7lvg44yp4supX4-h-56" target="qIy_7lvg44yp4supX4-h-6">
          <mxGeometry x="-0.8532" relative="1" as="geometry">
            <mxPoint x="840" y="158" as="sourcePoint" />
            <mxPoint x="990" y="130" as="targetPoint" />
            <Array as="points">
              <mxPoint x="900" y="158" />
              <mxPoint x="900" y="69" />
            </Array>
            <mxPoint as="offset" />
          </mxGeometry>
        </mxCell>
        <mxCell id="qIy_7lvg44yp4supX4-h-110" value="component" style="edgeLabel;html=1;align=center;verticalAlign=middle;resizable=0;points=[];" vertex="1" connectable="0" parent="qIy_7lvg44yp4supX4-h-109">
          <mxGeometry x="0.3211" y="1" relative="1" as="geometry">
            <mxPoint x="-19" y="3" as="offset" />
          </mxGeometry>
        </mxCell>
        <mxCell id="qIy_7lvg44yp4supX4-h-112" value="&amp;lt;&amp;lt; create &amp;gt;&amp;gt;" style="endArrow=open;endSize=12;dashed=1;html=1;rounded=0;edgeStyle=orthogonalEdgeStyle;exitX=0.5;exitY=0;exitDx=0;exitDy=0;entryX=0.5;entryY=0;entryDx=0;entryDy=0;" edge="1" parent="1" source="qIy_7lvg44yp4supX4-h-1" target="qIy_7lvg44yp4supX4-h-5">
          <mxGeometry x="-0.1379" width="160" relative="1" as="geometry">
            <mxPoint x="120" y="20" as="sourcePoint" />
            <mxPoint x="680" y="20" as="targetPoint" />
            <mxPoint as="offset" />
          </mxGeometry>
        </mxCell>
        <mxCell id="qIy_7lvg44yp4supX4-h-113" value="&lt;i&gt;BirdFactory&lt;/i&gt;" style="swimlane;fontStyle=1;align=center;verticalAlign=top;childLayout=stackLayout;horizontal=1;startSize=26;horizontalStack=0;resizeParent=1;resizeParentMax=0;resizeLast=0;collapsible=1;marginBottom=0;whiteSpace=wrap;html=1;" vertex="1" parent="1">
          <mxGeometry x="190" y="-290" width="190" height="70" as="geometry" />
        </mxCell>
        <mxCell id="qIy_7lvg44yp4supX4-h-115" value="" style="line;strokeWidth=1;fillColor=none;align=left;verticalAlign=middle;spacingTop=-1;spacingLeft=3;spacingRight=3;rotatable=0;labelPosition=right;points=[];portConstraint=eastwest;strokeColor=inherit;" vertex="1" parent="qIy_7lvg44yp4supX4-h-113">
          <mxGeometry y="26" width="190" height="8" as="geometry" />
        </mxCell>
        <mxCell id="qIy_7lvg44yp4supX4-h-116" value="&lt;div&gt;+ CreateBaldBird(): Bird*&lt;/div&gt;&lt;div&gt;+ CreateFeatheredBird() : Bird*&lt;br&gt;&lt;/div&gt;" style="text;strokeColor=none;fillColor=none;align=left;verticalAlign=top;spacingLeft=4;spacingRight=4;overflow=hidden;rotatable=0;points=[[0,0.5],[1,0.5]];portConstraint=eastwest;whiteSpace=wrap;html=1;" vertex="1" parent="qIy_7lvg44yp4supX4-h-113">
          <mxGeometry y="34" width="190" height="36" as="geometry" />
        </mxCell>
        <mxCell id="qIy_7lvg44yp4supX4-h-118" value="SesameFactory" style="swimlane;fontStyle=1;align=center;verticalAlign=top;childLayout=stackLayout;horizontal=1;startSize=26;horizontalStack=0;resizeParent=1;resizeParentMax=0;resizeLast=0;collapsible=1;marginBottom=0;whiteSpace=wrap;html=1;" vertex="1" parent="1">
          <mxGeometry x="-140" y="-80" width="190" height="70" as="geometry" />
        </mxCell>
        <mxCell id="qIy_7lvg44yp4supX4-h-119" value="" style="line;strokeWidth=1;fillColor=none;align=left;verticalAlign=middle;spacingTop=-1;spacingLeft=3;spacingRight=3;rotatable=0;labelPosition=right;points=[];portConstraint=eastwest;strokeColor=inherit;" vertex="1" parent="qIy_7lvg44yp4supX4-h-118">
          <mxGeometry y="26" width="190" height="8" as="geometry" />
        </mxCell>
        <mxCell id="qIy_7lvg44yp4supX4-h-120" value="&lt;div&gt;+ CreateBaldBird(): Bird*&lt;/div&gt;&lt;div&gt;+ CreateFeatheredBird() : Bird*&lt;br&gt;&lt;/div&gt;" style="text;strokeColor=none;fillColor=none;align=left;verticalAlign=top;spacingLeft=4;spacingRight=4;overflow=hidden;rotatable=0;points=[[0,0.5],[1,0.5]];portConstraint=eastwest;whiteSpace=wrap;html=1;" vertex="1" parent="qIy_7lvg44yp4supX4-h-118">
          <mxGeometry y="34" width="190" height="36" as="geometry" />
        </mxCell>
        <mxCell id="qIy_7lvg44yp4supX4-h-121" value="MuppetFactory" style="swimlane;fontStyle=1;align=center;verticalAlign=top;childLayout=stackLayout;horizontal=1;startSize=26;horizontalStack=0;resizeParent=1;resizeParentMax=0;resizeLast=0;collapsible=1;marginBottom=0;whiteSpace=wrap;html=1;" vertex="1" parent="1">
          <mxGeometry x="235" y="-100" width="190" height="70" as="geometry" />
        </mxCell>
        <mxCell id="qIy_7lvg44yp4supX4-h-122" value="" style="line;strokeWidth=1;fillColor=none;align=left;verticalAlign=middle;spacingTop=-1;spacingLeft=3;spacingRight=3;rotatable=0;labelPosition=right;points=[];portConstraint=eastwest;strokeColor=inherit;" vertex="1" parent="qIy_7lvg44yp4supX4-h-121">
          <mxGeometry y="26" width="190" height="8" as="geometry" />
        </mxCell>
        <mxCell id="qIy_7lvg44yp4supX4-h-123" value="&lt;div&gt;+ CreateBaldBird(): Bird*&lt;/div&gt;&lt;div&gt;+ CreateFeatheredBird() : Bird*&lt;br&gt;&lt;/div&gt;" style="text;strokeColor=none;fillColor=none;align=left;verticalAlign=top;spacingLeft=4;spacingRight=4;overflow=hidden;rotatable=0;points=[[0,0.5],[1,0.5]];portConstraint=eastwest;whiteSpace=wrap;html=1;" vertex="1" parent="qIy_7lvg44yp4supX4-h-121">
          <mxGeometry y="34" width="190" height="36" as="geometry" />
        </mxCell>
        <mxCell id="qIy_7lvg44yp4supX4-h-125" value="" style="endArrow=block;endSize=16;endFill=0;html=1;rounded=0;entryX=0.613;entryY=1.077;entryDx=0;entryDy=0;entryPerimeter=0;edgeStyle=orthogonalEdgeStyle;exitX=0.5;exitY=0;exitDx=0;exitDy=0;" edge="1" parent="1" source="qIy_7lvg44yp4supX4-h-118">
          <mxGeometry width="160" relative="1" as="geometry">
            <mxPoint x="120" y="-100" as="sourcePoint" />
            <mxPoint x="198.9999999999999" y="-219.99800000000005" as="targetPoint" />
          </mxGeometry>
        </mxCell>
        <mxCell id="qIy_7lvg44yp4supX4-h-126" value="" style="endArrow=block;endSize=16;endFill=0;html=1;rounded=0;entryX=0.613;entryY=1.077;entryDx=0;entryDy=0;entryPerimeter=0;exitX=0.5;exitY=0;exitDx=0;exitDy=0;edgeStyle=orthogonalEdgeStyle;" edge="1" parent="1" source="qIy_7lvg44yp4supX4-h-121">
          <mxGeometry width="160" relative="1" as="geometry">
            <mxPoint x="330" y="-113" as="sourcePoint" />
            <mxPoint x="329.9999999999999" y="-219.99800000000005" as="targetPoint" />
          </mxGeometry>
        </mxCell>
        <mxCell id="qIy_7lvg44yp4supX4-h-127" value="" style="endArrow=open;html=1;endSize=12;startArrow=none;startSize=14;startFill=0;edgeStyle=orthogonalEdgeStyle;align=left;verticalAlign=bottom;rounded=0;entryX=1;entryY=0.167;entryDx=0;entryDy=0;entryPerimeter=0;" edge="1" parent="1" target="qIy_7lvg44yp4supX4-h-116">
          <mxGeometry x="-0.8532" relative="1" as="geometry">
            <mxPoint x="430" y="68" as="sourcePoint" />
            <mxPoint x="400" y="-250" as="targetPoint" />
            <Array as="points">
              <mxPoint x="430" y="-250" />
            </Array>
            <mxPoint as="offset" />
          </mxGeometry>
        </mxCell>
        <mxCell id="qIy_7lvg44yp4supX4-h-129" value="" style="endArrow=open;html=1;endSize=12;startArrow=none;startSize=14;startFill=0;edgeStyle=orthogonalEdgeStyle;align=left;verticalAlign=bottom;rounded=0;entryX=1;entryY=0.167;entryDx=0;entryDy=0;entryPerimeter=0;exitX=0;exitY=0.25;exitDx=0;exitDy=0;" edge="1" parent="1" source="qIy_7lvg44yp4supX4-h-106">
          <mxGeometry x="-0.8532" relative="1" as="geometry">
            <mxPoint x="270" y="82.5" as="sourcePoint" />
            <mxPoint x="200" y="82.5" as="targetPoint" />
            <Array as="points">
              <mxPoint x="250" y="78" />
              <mxPoint x="250" y="83" />
            </Array>
            <mxPoint as="offset" />
          </mxGeometry>
        </mxCell>
        <mxCell id="qIy_7lvg44yp4supX4-h-131" value="" style="endArrow=open;endSize=12;dashed=1;html=1;rounded=0;entryX=0.122;entryY=-0.001;entryDx=0;entryDy=0;edgeStyle=orthogonalEdgeStyle;exitX=1;exitY=0.25;exitDx=0;exitDy=0;entryPerimeter=0;" edge="1" parent="1" source="qIy_7lvg44yp4supX4-h-121" target="qIy_7lvg44yp4supX4-h-29">
          <mxGeometry width="160" relative="1" as="geometry">
            <mxPoint x="430" y="-80" as="sourcePoint" />
            <mxPoint x="527" y="537" as="targetPoint" />
          </mxGeometry>
        </mxCell>
        <mxCell id="qIy_7lvg44yp4supX4-h-132" value="" style="endArrow=open;endSize=12;dashed=1;html=1;rounded=0;entryX=0.122;entryY=-0.001;entryDx=0;entryDy=0;edgeStyle=orthogonalEdgeStyle;exitX=0.979;exitY=0.833;exitDx=0;exitDy=0;entryPerimeter=0;exitPerimeter=0;" edge="1" parent="1" source="qIy_7lvg44yp4supX4-h-123">
          <mxGeometry width="160" relative="1" as="geometry">
            <mxPoint x="332.29" y="-80" as="sourcePoint" />
            <mxPoint x="567.29" y="562" as="targetPoint" />
          </mxGeometry>
        </mxCell>
        <mxCell id="qIy_7lvg44yp4supX4-h-134" value="" style="endArrow=open;endSize=12;dashed=1;html=1;rounded=0;entryX=0.024;entryY=0.233;entryDx=0;entryDy=0;entryPerimeter=0;edgeStyle=orthogonalEdgeStyle;exitX=0.517;exitY=0.992;exitDx=0;exitDy=0;exitPerimeter=0;" edge="1" parent="1" source="qIy_7lvg44yp4supX4-h-120" target="qIy_7lvg44yp4supX4-h-16">
          <mxGeometry width="160" relative="1" as="geometry">
            <mxPoint x="-200" y="670" as="sourcePoint" />
            <mxPoint x="-40" y="670" as="targetPoint" />
          </mxGeometry>
        </mxCell>
        <mxCell id="qIy_7lvg44yp4supX4-h-135" value="" style="endArrow=open;endSize=12;dashed=1;html=1;rounded=0;edgeStyle=orthogonalEdgeStyle;exitX=0;exitY=0.5;exitDx=0;exitDy=0;" edge="1" parent="1" source="qIy_7lvg44yp4supX4-h-120" target="qIy_7lvg44yp4supX4-h-24">
          <mxGeometry width="160" relative="1" as="geometry">
            <mxPoint x="-200" y="80" as="sourcePoint" />
            <mxPoint x="-114" y="761" as="targetPoint" />
          </mxGeometry>
        </mxCell>
      </root>
    </mxGraphModel>
  </diagram>
</mxfile>
